<svg width="358" height="124" viewBox="0 0 358 124" fill="none" xmlns="http://www.w3.org/2000/svg">
<g clip-path="url(#clip0_2379_671)">
<path d="M15.8261 69.9202C14.8352 69.1038 14.1232 68.1436 13.6868 67.0363C13.1271 65.6175 12.8995 64.1148 13.0056 62.5266C13.0107 62.4667 12.9816 62.4085 12.932 62.3742C8.43253 59.2833 6.3257 53.7416 8.45307 48.4531C8.47189 48.4052 8.46847 48.3521 8.44451 48.3059C7.76505 47.0736 7.2499 45.9252 7.09244 44.5441C6.75015 41.5507 7.72569 39.0331 10.0208 36.9879C10.0447 36.9656 10.0636 36.9366 10.0721 36.904C10.1902 36.4556 10.1423 35.9456 10.1885 35.5793C10.6729 31.708 13.5618 28.653 17.4178 27.9941C17.4777 27.9838 17.5256 27.9427 17.5479 27.888C19.3928 23.2345 23.74 20.835 28.6399 21.8653C28.7016 21.879 28.7666 21.8567 28.8077 21.8088C32.4326 17.4959 38.4296 16.8438 42.6227 20.7973C42.657 20.8298 42.7015 20.8452 42.7477 20.8435C46.1672 20.6758 48.3682 21.9286 50.8121 24.1193C50.8584 24.1604 50.9217 24.1741 50.9799 24.1552C55.149 22.7895 57.9901 26.3425 60.2253 29.2435C61.4062 30.7735 62.5135 31.4496 64.0727 32.4747C66.8538 34.3026 68.4883 37.6092 67.5761 40.9038C67.0609 42.7641 65.9194 44.0563 64.1514 44.7785C64.0761 44.8094 64.0333 44.8898 64.0487 44.9702C64.8497 49.0795 64.9404 54.1677 62.8079 57.8936C61.7725 59.6992 63.2751 62.4752 64.3123 64.0669C64.8754 64.9295 65.5908 65.8212 65.8783 66.7591C66.7973 69.7713 65.1578 72.359 62.3886 73.5023C62.0206 73.6546 61.8854 73.9233 61.9795 74.3118C62.3834 75.9514 62.7138 77.2932 61.6783 78.7907C61.1272 79.5866 59.9822 79.9871 59.8094 81.0003C59.6896 81.714 59.6228 82.5303 59.4688 83.1516C57.8104 89.8007 50.2302 88.0036 45.7102 86.5164C43.9868 85.9499 43.1618 87.0983 41.9809 88.3031C40.3841 89.9308 38.2276 92.6897 36.4323 95.0378C34.8287 97.1344 33.2079 99.2155 31.5666 101.283C31.5084 101.357 31.4023 101.37 31.327 101.312C31.3184 101.305 31.3116 101.298 31.3047 101.29C17.3276 90.7315 12.932 88.3031 6.2812 83.7421C6.19221 83.7061 6.14942 83.6068 6.18365 83.5196C6.18878 83.5076 6.19563 83.4956 6.20247 83.4836C9.37213 79.0047 12.5897 74.5617 15.8552 70.1546C15.91 70.081 15.8963 69.9783 15.8261 69.9202ZM52.4637 32.5295C54.3292 34.4926 56.3351 37.0769 55.9158 40.1439C55.9055 40.214 55.9397 40.2825 56.0013 40.3167C57.706 41.2563 60.1157 42.2627 62.0566 42.0145C63.6465 41.8126 64.5348 40.5255 64.5279 38.9801C64.516 36.4368 62.2277 35.0779 60.3143 33.962C58.6627 33.0002 57.3654 30.9139 55.9705 29.2366C54.6322 27.6244 52.8984 26.3476 50.8669 27.9171C50.8241 27.9513 50.7985 28.0026 50.8002 28.0574C50.8173 28.6752 50.7471 29.2794 50.5879 29.8664C50.3997 30.5647 49.5337 30.6879 49.2359 30.0016C49.2188 29.964 49.2171 29.9229 49.229 29.8836C49.6792 28.4083 49.3351 27.1572 48.1987 26.1303C46.4 24.5027 44.2811 23.878 41.8457 24.2545C41.7584 24.2682 41.6968 24.3469 41.702 24.4359C41.7345 24.9151 41.702 25.2403 41.6044 25.4097C41.3066 25.9403 40.9095 26.0088 40.4132 25.6151C40.3738 25.5843 40.3499 25.5364 40.3482 25.4851L40.3105 23.3936C40.3105 23.356 40.2968 23.3183 40.2729 23.2892C37.7347 20.1829 32.1793 21.2885 30.9145 25.0589C30.9025 25.0948 30.9025 25.1359 30.9145 25.1719C31.1421 25.8205 31.813 26.7687 30.5209 26.9073C30.4661 26.9141 30.4113 26.8936 30.3754 26.8525C29.9646 26.3956 29.5419 25.841 29.0045 25.5621C25.4344 23.7154 21.3696 25.8958 20.5344 29.7364C20.519 29.8117 20.5532 29.8887 20.6217 29.9246C21.3046 30.2875 23.1085 31.4838 23.271 32.2659C23.4217 32.995 22.4975 33.3784 22.1055 32.8495C20.6662 30.9121 17.9381 30.7153 16.0674 31.9288C14.0855 33.2141 13.211 35.1036 13.442 37.5955C13.4472 37.6571 13.4865 37.7119 13.543 37.7358C15.6088 38.6395 16.8325 37.7786 18.33 36.43C19.8772 35.0385 21.0359 34.4138 23.2505 34.3762C24.4023 34.3574 25.5559 34.3505 26.7094 34.3591C27.4676 34.3642 28.0255 34.4309 28.3849 34.5627C30.0091 35.16 30.87 37.0974 30.1152 38.6515C29.0507 40.8456 26.1395 40.6265 25.0732 42.5605C24.6556 43.3204 24.7378 44.0786 25.2564 44.7751C26.6375 46.6372 28.7444 45.5384 29.9355 44.1693C30.6954 43.2981 31.5306 42.5091 32.4429 41.7989C34.9416 39.8563 38.5083 41.0047 39.0594 44.2103C39.3709 46.0142 38.623 48.6191 38.1797 50.6626C37.6492 53.1134 37.9778 55.4838 39.1638 57.7721C40.0093 59.4014 40.9352 60.6799 41.6112 62.6087C41.8098 63.1752 42.6433 64.5855 43.3655 63.7811C44.1836 62.8672 42.479 60.1459 41.9604 59.208C38.4587 52.8636 40.2968 45.547 47.7332 43.4864C49.8931 42.8874 53.708 42.237 54.4764 39.9333C55.2415 37.6383 52.9583 35.0659 51.5669 33.5085C50.8378 32.6904 51.7466 31.7782 52.462 32.5295H52.4637ZM18.1606 44.6211C18.8417 44.6211 19.5007 44.645 20.187 44.6587C20.2297 44.6587 20.2691 44.6759 20.2999 44.705C20.7295 45.1071 20.7175 45.4854 20.264 45.8431C20.2332 45.8688 20.1938 45.8824 20.1527 45.8807C16.853 45.7712 13.4369 46.2744 11.7665 49.5313C10.1748 52.6359 11.1777 56.3875 13.5978 58.7305C15.4308 60.507 17.6351 61.3919 20.2092 61.3867C23.1067 61.3799 24.185 57.8594 21.1967 56.7589C20.3341 56.4406 19.3894 56.1308 18.698 55.6824C16.4833 54.2499 15.3401 51.7425 15.7628 49.1137C15.8158 48.7902 16.0058 48.6362 16.3327 48.6482C16.8907 48.6704 17.0019 49.1017 16.9865 49.6049C16.8941 52.5812 18.4276 54.4364 21.1539 55.2802C26.1652 56.8325 24.7566 62.9459 19.7694 62.6943C18.5902 62.6344 17.529 62.4547 16.5894 62.1535C16.5004 62.1244 16.4046 62.1723 16.3755 62.263C16.3704 62.2767 16.3687 62.2921 16.3669 62.3075C16.3156 63.2676 16.3396 64.0327 16.4405 64.6026C17.2158 69.0302 22.4957 69.3485 25.0219 66.3808C25.6996 65.585 26.3295 64.2124 26.8977 63.3772C27.6747 62.2356 28.628 61.2601 29.7558 60.454C29.814 60.4112 29.8397 60.3376 29.8209 60.2691C29.1055 57.6951 29.1756 53.6782 31.1524 51.5919C32.6465 50.0157 34.4881 49.7144 36.6771 50.69C36.7626 50.7294 36.8653 50.69 36.903 50.6044C36.9081 50.5924 36.9115 50.5805 36.9149 50.5668C37.211 49.0607 37.478 47.6093 37.7142 46.2128C37.8237 45.5641 37.834 44.9805 37.7467 44.4636C37.3788 42.3055 35.0426 41.5199 33.3243 42.7573C32.1485 43.6028 31.2277 44.7477 30.1991 45.7575C28.7153 47.2123 26.4749 47.5426 24.8559 46.2282C22.3246 44.1727 23.6287 40.9654 26.2507 39.8563C27.0226 39.5294 27.6644 39.1991 28.1761 38.8654C29.8294 37.7889 29.0096 35.6923 27.1869 35.6838C24.6231 35.6701 21.6451 35.2011 19.6359 37.0358C17.4246 39.0588 16.3139 39.8974 13.0946 39.0417C13.0501 39.0297 13.0022 39.0365 12.9611 39.0605C11.3112 40.0617 10.2689 41.7201 10.3579 43.6764C10.4127 44.8881 10.8491 45.9903 11.6672 46.9829C11.7271 47.0565 11.8349 47.0668 11.9085 47.0069C11.9085 47.0069 11.912 47.0035 11.9137 47.0018C13.6799 45.4221 15.7628 44.6296 18.1606 44.6211ZM34.536 54.8215C35.3712 54.9379 36.126 55.2425 36.7986 55.7337C37.0193 55.8963 37.0912 55.845 37.0108 55.5831C36.6873 54.5237 36.5555 53.4369 36.6154 52.3193C36.6189 52.2577 36.5881 52.1995 36.535 52.1653C34.6147 50.9484 32.5627 51.3318 31.5187 53.3376C29.6942 56.841 30.882 61.3046 33.2096 64.1935C34.1064 65.306 35.5817 66.2593 36.8568 65.1451C37.1631 64.8764 37.7228 64.7258 37.9093 65.1417C38.0651 65.4874 38 65.7852 37.7142 66.0334C36.1242 67.4128 34.4453 67.0124 32.9614 65.6894C32.3624 65.1554 31.8404 64.5427 31.3954 63.8495C31.3458 63.7708 31.2414 63.7469 31.161 63.7965C31.1575 63.7982 31.1541 63.7999 31.1524 63.8033C30.6937 64.1336 30.3086 64.4982 29.9972 64.897C29.2047 65.9085 28.5116 67.3016 27.8647 68.1334C25.8211 70.7639 22.631 72.0373 19.1823 71.4417C19.119 71.4297 19.054 71.4554 19.0163 71.5084L11.2753 82.0785C11.2188 82.1555 11.2359 82.2616 11.3129 82.3181C11.3215 82.3249 11.3318 82.3301 11.342 82.3352C14.943 85.9623 19.1823 88.3031 31.0805 96.2256C31.1456 96.2923 31.2534 96.2957 31.3201 96.2307C31.327 96.2239 31.3338 96.217 31.339 96.2085C34.3049 92.2584 37.3462 88.2261 40.8958 84.7005C42.0408 83.5623 43.3621 83.0061 44.8596 83.0352C45.9806 83.0558 47.5535 83.6685 48.5068 83.932C49.751 84.276 51.0894 84.4831 52.5185 84.5516C54.9796 84.6697 56.2016 83.956 56.4207 81.4213C56.5199 80.2678 56.6705 79.2323 57.3757 78.291C57.9405 77.5379 59.3952 76.9697 58.9947 75.8128C58.4607 74.269 58.5634 72.7013 59.3028 71.1096C59.3268 71.06 59.373 71.0241 59.426 71.0138C60.7695 70.7519 63.5421 69.648 62.7069 67.7278C62.6059 67.4967 62.2072 66.8703 61.5089 65.8486C59.8333 63.396 58.0688 59.5794 59.7923 56.5176C61.5773 53.3479 61.4747 49.1325 60.7558 45.4854C60.7421 45.4152 60.684 45.3604 60.6121 45.3485C58.9314 45.0969 57.3226 44.6074 55.7857 43.8783C55.7275 43.8492 55.6591 43.8578 55.6077 43.8971C53.72 45.3502 51.4676 45.8807 49.2171 46.4952C45.5134 47.5066 43.0318 49.6802 43.6873 53.8836C44.0741 56.3635 45.2053 58.1229 46.2134 60.2144C47.3533 62.5796 47.2026 65.3813 44.8237 66.8053C43.4904 67.6028 42.0254 67.5515 40.735 66.7248C39.8981 66.1891 39.3401 65.5884 39.0629 64.9226C38.3132 63.1153 37.49 61.3405 36.5949 59.5999C36.3399 59.1053 36.1585 58.3557 36.0507 57.3494C35.9634 56.5432 35.1521 56.1017 34.4093 56.0794C33.8137 56.064 33.4441 55.9853 33.3944 55.3401C33.391 55.3007 33.4013 55.2613 33.4235 55.2288C33.6631 54.8882 34.0345 54.7513 34.536 54.8215Z" fill="white"/>
<path d="M52.4644 32.5296C51.749 31.7782 50.8402 32.6905 51.5693 33.5085C52.9607 35.066 55.2438 37.6383 54.4788 39.9334C53.7104 42.2371 49.8955 42.8874 47.7356 43.4865C40.2992 45.5471 38.4611 52.8636 41.9628 59.2081C42.4813 60.146 44.186 62.8672 43.3679 63.7812C42.6457 64.5856 41.8122 63.1753 41.6136 62.6088C40.9376 60.68 40.0117 59.4015 39.1662 57.7722C37.9802 55.4839 37.6516 53.1135 38.1821 50.6627C38.6254 48.6192 39.3733 46.0143 39.0618 44.2104C38.5107 41.0048 34.944 39.8564 32.4452 41.7989C31.533 42.5092 30.6978 43.2982 29.9379 44.1693C28.7467 45.5385 26.6399 46.6373 25.2587 44.7752C24.7402 44.0786 24.658 43.3204 25.0756 42.5606C26.1419 40.6266 29.0531 40.8457 30.1176 38.6515C30.8724 37.0975 30.0115 35.1601 28.3873 34.5628C28.0279 34.431 27.47 34.3643 26.7118 34.3591C25.5583 34.3506 24.4047 34.3574 23.2529 34.3763C21.0382 34.4139 19.8796 35.0386 18.3324 36.43C16.8349 37.7787 15.6111 38.6396 13.5454 37.7359C13.4889 37.7119 13.4495 37.6572 13.4444 37.5956C13.2134 35.1036 14.0879 33.2142 16.0698 31.9289C17.9405 30.7154 20.6686 30.9122 22.1079 32.8496C22.4998 33.3785 23.424 32.9951 23.2734 32.266C23.1108 31.4839 21.3069 30.2875 20.6241 29.9247C20.5556 29.8888 20.5214 29.8118 20.5368 29.7364C21.372 25.8959 25.4367 23.7155 29.0069 25.5622C29.5443 25.8411 29.967 26.3956 30.3778 26.8526C30.4137 26.8937 30.4685 26.9142 30.5233 26.9074C31.8154 26.7687 31.1445 25.8206 30.9169 25.1719C30.9032 25.136 30.9032 25.0949 30.9169 25.059C32.1817 21.2886 37.7371 20.183 40.2753 23.2893C40.2992 23.3184 40.3129 23.3561 40.3129 23.3937L40.3506 25.4851C40.3506 25.5365 40.3762 25.5844 40.4156 25.6152C40.9119 26.0088 41.309 25.9404 41.6068 25.4098C41.7043 25.2404 41.7369 24.9152 41.7043 24.436C41.6992 24.347 41.7608 24.2683 41.8481 24.2546C44.2835 23.8781 46.4023 24.5027 48.2011 26.1304C49.3375 27.1572 49.6815 28.4083 49.2314 29.8836C49.2194 29.923 49.2212 29.9641 49.2383 30.0017C49.5361 30.688 50.4021 30.5648 50.5903 29.8665C50.7495 29.2795 50.8197 28.6753 50.8026 28.0575C50.8026 28.0027 50.8265 27.9514 50.8693 27.9171C52.9008 26.3477 54.6346 27.6245 55.9729 29.2367C57.3678 30.9139 58.6651 33.0002 60.3167 33.9621C62.2301 35.078 64.5183 36.4369 64.5303 38.9801C64.5372 40.5256 63.6489 41.8126 62.059 42.0146C60.1181 42.2628 57.7084 41.2564 56.0037 40.3168C55.9421 40.2826 55.9079 40.2141 55.9182 40.1439C56.3375 37.077 54.3316 34.4926 52.4661 32.5296H52.4644ZM33.8829 33.9604C35.3308 34.366 36.445 33.5 37.0885 32.2421C37.6961 31.0577 38.0794 30.3748 38.9489 29.6868C40.2787 28.636 42.3461 28.677 43.3645 30.1198C44.7508 32.0829 43.1933 33.4435 41.8447 34.7203C40.4532 36.0381 39.8645 38.0611 40.8298 39.7743C41.4904 40.9466 42.7056 41.6432 44.0593 41.6603C46.4451 41.6911 47.7424 39.7486 49.7637 38.9014C50.6913 38.5112 51.4307 38.5745 52.3155 38.4958C52.36 38.4924 52.4028 38.4718 52.4319 38.4376C52.7622 38.0491 52.7434 37.6914 52.3737 37.3662C52.348 37.344 52.3172 37.3303 52.283 37.3251C49.726 36.988 48.1823 38.2784 46.2055 39.5655C45.6099 39.954 45.1376 40.1919 44.7884 40.2757C42.9811 40.7156 41.2782 39.2523 41.7369 37.3594C42.1527 35.6462 43.9686 34.9256 44.7405 33.4384C45.3104 32.3413 45.3549 31.2425 44.874 30.1421C43.1882 26.2758 38.1599 27.2326 36.5254 30.5614C35.9983 31.6328 35.6166 32.6391 34.5949 32.7332C33.3694 32.8445 32.4298 31.157 32.2878 30.1575C32.2159 29.6509 32.2056 28.9766 31.7042 28.7523C31.3533 28.5966 31.0744 28.7712 30.8707 29.2778C30.8621 29.3 30.857 29.324 30.8587 29.3479C30.9426 31.3315 31.913 33.4093 33.8829 33.9604Z" fill="#61C6FF"/>
<path d="M20.1839 44.6576C19.4976 44.6439 18.8387 44.6182 18.1575 44.6199C15.7597 44.6285 13.6769 45.4209 11.9106 47.0006C11.8405 47.0639 11.7326 47.0571 11.6693 46.9869C11.6693 46.9852 11.6659 46.9835 11.6642 46.9818C10.8461 45.9891 10.4097 44.8869 10.3549 43.6752C10.2659 41.719 11.3082 40.0605 12.9581 39.0593C12.9991 39.0354 13.047 39.0285 13.0915 39.0405C16.3108 39.8962 17.4216 39.0576 19.6328 37.0346C21.6421 35.1999 24.6201 35.6689 27.1839 35.6826C29.0066 35.6911 29.8264 37.7877 28.1731 38.8642C27.6614 39.198 27.0196 39.5283 26.2477 39.8552C23.6257 40.9642 22.3215 44.1715 24.8528 46.227C26.4719 47.5414 28.7122 47.2111 30.1961 45.7563C31.2247 44.7466 32.1454 43.6016 33.3212 42.7561C35.0395 41.5187 37.3757 42.3043 37.7437 44.4625C37.831 44.9793 37.8207 45.5629 37.7112 46.2116C37.475 47.6082 37.208 49.0595 36.9119 50.5656C36.8931 50.658 36.8041 50.7196 36.7117 50.7008C36.6997 50.6991 36.686 50.694 36.674 50.6888C34.485 49.7133 32.6435 50.0145 31.1493 51.5908C29.1726 53.6771 29.1024 57.6939 29.8178 60.268C29.8366 60.3364 29.811 60.41 29.7528 60.4528C28.6249 61.2589 27.6716 62.2345 26.8946 63.376C26.3264 64.2112 25.6966 65.5838 25.0188 66.3797C22.4927 69.3474 17.2128 69.029 16.4375 64.6014C16.3365 64.0315 16.3125 63.2665 16.3639 62.3063C16.369 62.2122 16.4495 62.1386 16.5419 62.1437C16.5573 62.1437 16.571 62.1472 16.5864 62.1523C17.526 62.4535 18.5871 62.6332 19.7663 62.6931C24.7536 62.9447 26.1621 56.8313 21.1509 55.279C18.4245 54.4352 16.891 52.58 16.9834 49.6037C16.9988 49.1006 16.8876 48.6693 16.3297 48.647C16.0028 48.635 15.8128 48.7891 15.7597 49.1125C15.337 51.7414 16.4803 54.2487 18.6949 55.6812C19.3864 56.1296 20.3311 56.4394 21.1937 56.7577C24.1819 57.8582 23.1037 61.3787 20.2062 61.3856C17.6321 61.3907 15.4277 60.5059 13.5947 58.7293C11.1747 56.3863 10.1718 52.6348 11.7634 49.5301C13.4338 46.2732 16.85 45.77 20.1497 45.8796C20.1908 45.8796 20.2301 45.8676 20.2609 45.8419C20.7145 45.4842 20.7264 45.106 20.2969 44.7038C20.2661 44.6747 20.2267 44.6593 20.1839 44.6576Z" fill="#61C6FF"/>
<path d="M33.8816 33.9591C31.9117 33.408 30.9413 31.3303 30.8574 29.3467C30.8574 29.3227 30.8608 29.2988 30.8694 29.2765C31.0731 28.7699 31.352 28.5954 31.7029 28.7511C32.2044 28.9753 32.2146 29.6496 32.2865 30.1562C32.4286 31.1557 33.3682 32.8433 34.5936 32.732C35.6153 32.6379 35.997 31.6315 36.5241 30.5601C38.1586 27.2313 43.1869 26.2746 44.8727 30.1408C45.3536 31.2413 45.3091 32.3401 44.7392 33.4371C43.9673 34.9244 42.1515 35.6449 41.7356 37.3581C41.2769 39.251 42.9798 40.7143 44.7871 40.2745C45.1363 40.1906 45.6086 39.9527 46.2042 39.5642C48.181 38.2772 49.7248 36.9867 52.2817 37.3239C52.3159 37.329 52.3467 37.3427 52.3724 37.365C52.7421 37.6902 52.7609 38.0479 52.4306 38.4364C52.4015 38.4706 52.3587 38.4911 52.3142 38.4946C51.4294 38.5733 50.69 38.51 49.7624 38.9002C47.7412 39.7474 46.4438 41.6899 44.058 41.6591C42.7043 41.642 41.4891 40.9454 40.8285 39.773C39.8632 38.0598 40.452 36.0369 41.8434 34.719C43.192 33.4423 44.7495 32.0816 43.3632 30.1186C42.3449 28.6758 40.2774 28.6347 38.9476 29.6856C38.0781 30.3736 37.6948 31.0565 37.0872 32.2408C36.4437 33.4987 35.3295 34.3648 33.8816 33.9591Z" fill="white"/>
</g>
<path d="M77.0566 44.1854H87.0311L97.566 69.8875H98.0143L108.549 44.1854H118.524V82.4396H110.679V57.5408H110.361L100.461 82.2528H95.1191L85.2193 57.4474H84.9017V82.4396H77.0566V44.1854Z" fill="white"/>
<path d="M125.038 82.4396V53.749H132.995V82.4396H125.038ZM129.035 50.0506C127.852 50.0506 126.837 49.6583 125.99 48.8738C125.156 48.0768 124.739 47.1242 124.739 46.0159C124.739 44.9201 125.156 43.98 125.99 43.1954C126.837 42.3985 127.852 42 129.035 42C130.218 42 131.227 42.3985 132.061 43.1954C132.908 43.98 133.331 44.9201 133.331 46.0159C133.331 47.1242 132.908 48.0768 132.061 48.8738C131.227 49.6583 130.218 50.0506 129.035 50.0506Z" fill="white"/>
<path d="M147.326 65.8528V82.4396H139.369V53.749H146.953V58.8109H147.289C147.924 57.1423 148.989 55.8223 150.483 54.851C151.977 53.8673 153.789 53.3754 155.919 53.3754C157.911 53.3754 159.648 53.8112 161.13 54.6829C162.612 55.5546 163.764 56.7998 164.586 58.4187C165.407 60.0251 165.818 61.9427 165.818 64.1718V82.4396H157.861V65.5913C157.874 63.8355 157.425 62.4658 156.516 61.482C155.607 60.4858 154.356 59.9877 152.762 59.9877C151.691 59.9877 150.745 60.2181 149.923 60.6788C149.113 61.1396 148.478 61.812 148.017 62.6961C147.569 63.5678 147.339 64.62 147.326 65.8528Z" fill="white"/>
<path d="M182.662 82.9066C180.483 82.9066 178.509 82.3462 176.741 81.2255C174.985 80.0923 173.59 78.4299 172.557 76.2383C171.536 74.0342 171.025 71.332 171.025 68.1317C171.025 64.8442 171.554 62.1109 172.613 59.9317C173.671 57.74 175.078 56.1025 176.834 55.0191C178.602 53.9233 180.539 53.3754 182.643 53.3754C184.25 53.3754 185.588 53.6494 186.659 54.1973C187.743 54.7327 188.614 55.4052 189.274 56.2146C189.947 57.0115 190.457 57.7961 190.806 58.5681H191.049V44.1854H198.987V82.4396H191.142V77.8446H190.806C190.432 78.6416 189.903 79.4323 189.218 80.2169C188.546 80.9889 187.668 81.6302 186.585 82.1408C185.514 82.6513 184.206 82.9066 182.662 82.9066ZM185.184 76.5745C186.466 76.5745 187.55 76.2258 188.434 75.5285C189.33 74.8187 190.015 73.8287 190.488 72.5585C190.974 71.2884 191.217 69.8003 191.217 68.0943C191.217 66.3883 190.98 64.9065 190.507 63.6487C190.034 62.391 189.349 61.4197 188.452 60.7349C187.556 60.05 186.466 59.7075 185.184 59.7075C183.876 59.7075 182.774 60.0624 181.877 60.7722C180.981 61.482 180.302 62.4658 179.841 63.7235C179.381 64.9812 179.15 66.4381 179.15 68.0943C179.15 69.7629 179.381 71.2386 179.841 72.5212C180.315 73.7913 180.993 74.7875 181.877 75.5098C182.774 76.2196 183.876 76.5745 185.184 76.5745Z" fill="white"/>
<path d="M212.59 44.1854L221.836 73.2497H222.191L231.456 44.1854H240.422L227.234 82.4396H216.812L203.606 44.1854H212.59Z" fill="white"/>
<path d="M254.715 83C251.764 83 249.224 82.4023 247.095 81.2068C244.978 79.9989 243.346 78.2929 242.201 76.0888C241.055 73.8723 240.482 71.251 240.482 68.2251C240.482 65.2738 241.055 62.6837 242.201 60.4547C243.346 58.2257 244.959 56.4885 247.039 55.2433C249.131 53.998 251.584 53.3754 254.398 53.3754C256.291 53.3754 258.053 53.6805 259.684 54.2907C261.328 54.8884 262.76 55.7912 263.98 56.9991C265.213 58.207 266.172 59.7262 266.857 61.5567C267.542 63.3748 267.884 65.5042 267.884 67.9449V70.1303H243.658V65.1991H260.394C260.394 64.0535 260.145 63.0386 259.647 62.1544C259.149 61.2703 258.457 60.5792 257.573 60.0811C256.702 59.5705 255.687 59.3153 254.529 59.3153C253.321 59.3153 252.25 59.5954 251.316 60.1558C250.394 60.7037 249.672 61.4446 249.149 62.3786C248.626 63.3001 248.358 64.3274 248.346 65.4606V70.149C248.346 71.5686 248.608 72.7951 249.131 73.8287C249.666 74.8623 250.419 75.6592 251.391 76.2196C252.362 76.78 253.514 77.0601 254.846 77.0601C255.73 77.0601 256.54 76.9356 257.275 76.6866C258.009 76.4375 258.638 76.0639 259.161 75.5658C259.684 75.0677 260.083 74.4576 260.357 73.7353L267.716 74.221C267.342 75.9892 266.577 77.5333 265.418 78.8533C264.273 80.1608 262.791 81.1819 260.973 81.9166C259.167 82.6389 257.081 83 254.715 83Z" fill="white"/>
<path d="M273.077 82.4396V53.749H280.791V58.7549H281.09C281.613 56.9742 282.491 55.6293 283.724 54.7203C284.956 53.7988 286.376 53.338 287.982 53.338C288.381 53.338 288.811 53.3629 289.271 53.4128C289.732 53.4626 290.137 53.5311 290.485 53.6182V60.6788C290.112 60.5667 289.595 60.4671 288.935 60.38C288.275 60.2928 287.671 60.2492 287.123 60.2492C285.953 60.2492 284.907 60.5045 283.985 61.015C283.076 61.5131 282.354 62.2105 281.818 63.1071C281.295 64.0036 281.034 65.0372 281.034 66.2077V82.4396H273.077Z" fill="white"/>
<path d="M318.471 61.9303L311.186 62.3786C311.062 61.756 310.794 61.1956 310.383 60.6975C309.972 60.1869 309.43 59.7822 308.758 59.4834C308.098 59.1721 307.307 59.0164 306.386 59.0164C305.153 59.0164 304.113 59.2779 303.266 59.8009C302.42 60.3115 301.996 60.9964 301.996 61.8556C301.996 62.5405 302.27 63.1195 302.818 63.5927C303.366 64.0659 304.306 64.4457 305.639 64.7321L310.831 65.7781C313.621 66.3509 315.7 67.2724 317.07 68.5426C318.44 69.8128 319.125 71.4814 319.125 73.5485C319.125 75.4289 318.571 77.0788 317.462 78.4984C316.366 79.918 314.86 81.0263 312.942 81.8232C311.037 82.6077 308.839 83 306.348 83C302.55 83 299.524 82.2093 297.27 80.6278C295.029 79.0339 293.715 76.8671 293.329 74.1276L301.156 73.7166C301.392 74.8747 301.965 75.7588 302.874 76.369C303.783 76.9667 304.947 77.2656 306.367 77.2656C307.762 77.2656 308.882 76.9979 309.729 76.4624C310.588 75.9145 311.024 75.2109 311.037 74.3517C311.024 73.6295 310.719 73.038 310.122 72.5772C309.524 72.104 308.602 71.7429 307.357 71.4939L302.388 70.5039C299.587 69.9435 297.501 68.9722 296.131 67.59C294.774 66.2077 294.095 64.4457 294.095 62.3039C294.095 60.4609 294.593 58.8732 295.589 57.5408C296.598 56.2084 298.011 55.181 299.829 54.4588C301.66 53.7365 303.802 53.3754 306.255 53.3754C309.879 53.3754 312.73 54.1412 314.81 55.6729C316.902 57.2046 318.122 59.2904 318.471 61.9303Z" fill="white"/>
<path d="M337.21 83C334.259 83 331.719 82.4023 329.59 81.2068C327.473 79.9989 325.841 78.2929 324.696 76.0888C323.55 73.8723 322.977 71.251 322.977 68.2251C322.977 65.2738 323.55 62.6837 324.696 60.4547C325.841 58.2257 327.454 56.4885 329.533 55.2433C331.626 53.998 334.079 53.3754 336.893 53.3754C338.786 53.3754 340.548 53.6805 342.179 54.2907C343.823 54.8884 345.255 55.7912 346.475 56.9991C347.708 58.207 348.667 59.7262 349.352 61.5567C350.037 63.3748 350.379 65.5042 350.379 67.9449V70.1303H326.153V65.1991H342.889C342.889 64.0535 342.64 63.0386 342.142 62.1544C341.644 61.2703 340.952 60.5792 340.068 60.0811C339.197 59.5705 338.182 59.3153 337.024 59.3153C335.816 59.3153 334.745 59.5954 333.811 60.1558C332.889 60.7037 332.167 61.4446 331.644 62.3786C331.121 63.3001 330.853 64.3274 330.841 65.4606V70.149C330.841 71.5686 331.102 72.7951 331.626 73.8287C332.161 74.8623 332.914 75.6592 333.886 76.2196C334.857 76.78 336.009 77.0601 337.341 77.0601C338.225 77.0601 339.035 76.9356 339.769 76.6866C340.504 76.4375 341.133 76.0639 341.656 75.5658C342.179 75.0677 342.578 74.4576 342.851 73.7353L350.211 74.221C349.837 75.9892 349.072 77.5333 347.913 78.8533C346.768 80.1608 345.286 81.1819 343.468 81.9166C341.662 82.6389 339.576 83 337.21 83Z" fill="white"/>
<defs>
<clipPath id="clip0_2379_671">
<rect width="62" height="83.5184" fill="white" transform="translate(6 18)"/>
</clipPath>
</defs>
</svg>
