<svg width="86" height="124" viewBox="0 0 86 124" fill="none" xmlns="http://www.w3.org/2000/svg">
<g clip-path="url(#clip0_2379_709)">
<path d="M21.8261 69.9202C20.8352 69.1038 20.1232 68.1436 19.6868 67.0363C19.1271 65.6175 18.8995 64.1148 19.0056 62.5266C19.0107 62.4667 18.9816 62.4085 18.932 62.3742C14.4325 59.2833 12.3257 53.7416 14.4531 48.4531C14.4719 48.4052 14.4685 48.3521 14.4445 48.3059C13.7651 47.0736 13.2499 45.9252 13.0924 44.5441C12.7501 41.5507 13.7257 39.0331 16.0208 36.9879C16.0447 36.9656 16.0636 36.9366 16.0721 36.904C16.1902 36.4556 16.1423 35.9456 16.1885 35.5793C16.6729 31.708 19.5618 28.653 23.4178 27.9941C23.4777 27.9838 23.5256 27.9427 23.5479 27.888C25.3928 23.2345 29.74 20.835 34.6399 21.8653C34.7016 21.879 34.7666 21.8567 34.8077 21.8088C38.4326 17.4959 44.4296 16.8438 48.6227 20.7973C48.657 20.8298 48.7015 20.8452 48.7477 20.8435C52.1672 20.6758 54.3682 21.9286 56.8121 24.1193C56.8584 24.1604 56.9217 24.1741 56.9799 24.1552C61.149 22.7895 63.9901 26.3425 66.2253 29.2435C67.4062 30.7735 68.5135 31.4496 70.0727 32.4747C72.8538 34.3026 74.4883 37.6092 73.5761 40.9038C73.0609 42.7641 71.9194 44.0563 70.1514 44.7785C70.0761 44.8094 70.0333 44.8898 70.0487 44.9702C70.8497 49.0795 70.9404 54.1677 68.8079 57.8936C67.7725 59.6992 69.2751 62.4752 70.3123 64.0669C70.8754 64.9295 71.5908 65.8212 71.8783 66.7591C72.7973 69.7713 71.1578 72.359 68.3886 73.5023C68.0206 73.6546 67.8854 73.9233 67.9795 74.3118C68.3834 75.9514 68.7138 77.2932 67.6783 78.7907C67.1272 79.5866 65.9822 79.9871 65.8094 81.0003C65.6896 81.714 65.6228 82.5303 65.4688 83.1516C63.8104 89.8007 56.2302 88.0036 51.7102 86.5164C49.9868 85.9499 49.1618 87.0983 47.9809 88.3031C46.3841 89.9308 44.2276 92.6897 42.4323 95.0378C40.8287 97.1344 39.2079 99.2155 37.5666 101.283C37.5084 101.357 37.4023 101.37 37.327 101.312C37.3184 101.305 37.3116 101.298 37.3047 101.29C23.3276 90.7315 18.932 88.3031 12.2812 83.7421C12.1922 83.7061 12.1494 83.6068 12.1836 83.5196C12.1888 83.5076 12.1956 83.4956 12.2025 83.4836C15.3721 79.0047 18.5897 74.5617 21.8552 70.1546C21.91 70.081 21.8963 69.9783 21.8261 69.9202ZM58.4637 32.5295C60.3292 34.4926 62.3351 37.0769 61.9158 40.1439C61.9055 40.214 61.9397 40.2825 62.0013 40.3167C63.706 41.2563 66.1157 42.2627 68.0566 42.0145C69.6465 41.8126 70.5348 40.5255 70.5279 38.9801C70.516 36.4368 68.2277 35.0779 66.3143 33.962C64.6627 33.0002 63.3654 30.9139 61.9705 29.2366C60.6322 27.6244 58.8984 26.3476 56.8669 27.9171C56.8241 27.9513 56.7985 28.0026 56.8002 28.0574C56.8173 28.6752 56.7471 29.2794 56.5879 29.8664C56.3997 30.5647 55.5337 30.6879 55.2359 30.0016C55.2188 29.964 55.2171 29.9229 55.229 29.8836C55.6792 28.4083 55.3351 27.1572 54.1987 26.1303C52.4 24.5027 50.2811 23.878 47.8457 24.2545C47.7584 24.2682 47.6968 24.3469 47.702 24.4359C47.7345 24.9151 47.702 25.2403 47.6044 25.4097C47.3066 25.9403 46.9095 26.0088 46.4132 25.6151C46.3738 25.5843 46.3499 25.5364 46.3482 25.4851L46.3105 23.3936C46.3105 23.356 46.2968 23.3183 46.2729 23.2892C43.7347 20.1829 38.1793 21.2885 36.9145 25.0589C36.9025 25.0948 36.9025 25.1359 36.9145 25.1719C37.1421 25.8205 37.813 26.7687 36.5209 26.9073C36.4661 26.9141 36.4113 26.8936 36.3754 26.8525C35.9646 26.3956 35.5419 25.841 35.0045 25.5621C31.4344 23.7154 27.3696 25.8958 26.5344 29.7364C26.519 29.8117 26.5532 29.8887 26.6217 29.9246C27.3046 30.2875 29.1085 31.4838 29.271 32.2659C29.4217 32.995 28.4975 33.3784 28.1055 32.8495C26.6662 30.9121 23.9381 30.7153 22.0674 31.9288C20.0855 33.2141 19.211 35.1036 19.442 37.5955C19.4472 37.6571 19.4865 37.7119 19.543 37.7358C21.6088 38.6395 22.8325 37.7786 24.33 36.43C25.8772 35.0385 27.0359 34.4138 29.2505 34.3762C30.4023 34.3574 31.5559 34.3505 32.7094 34.3591C33.4676 34.3642 34.0255 34.4309 34.3849 34.5627C36.0091 35.16 36.87 37.0974 36.1152 38.6515C35.0507 40.8456 32.1395 40.6265 31.0732 42.5605C30.6556 43.3204 30.7378 44.0786 31.2564 44.7751C32.6375 46.6372 34.7444 45.5384 35.9355 44.1693C36.6954 43.2981 37.5306 42.5091 38.4429 41.7989C40.9416 39.8563 44.5083 41.0047 45.0594 44.2103C45.3709 46.0142 44.623 48.6191 44.1797 50.6626C43.6492 53.1134 43.9778 55.4838 45.1638 57.7721C46.0093 59.4014 46.9352 60.6799 47.6112 62.6087C47.8098 63.1752 48.6433 64.5855 49.3655 63.7811C50.1836 62.8672 48.479 60.1459 47.9604 59.208C44.4587 52.8636 46.2968 45.547 53.7332 43.4864C55.8931 42.8874 59.708 42.237 60.4764 39.9333C61.2415 37.6383 58.9583 35.0659 57.5669 33.5085C56.8378 32.6904 57.7466 31.7782 58.462 32.5295H58.4637ZM24.1606 44.6211C24.8417 44.6211 25.5007 44.645 26.187 44.6587C26.2297 44.6587 26.2691 44.6759 26.2999 44.705C26.7295 45.1071 26.7175 45.4854 26.264 45.8431C26.2332 45.8688 26.1938 45.8824 26.1527 45.8807C22.853 45.7712 19.4369 46.2744 17.7665 49.5313C16.1748 52.6359 17.1777 56.3875 19.5978 58.7305C21.4308 60.507 23.6351 61.3919 26.2092 61.3867C29.1067 61.3799 30.185 57.8594 27.1967 56.7589C26.3341 56.4406 25.3894 56.1308 24.698 55.6824C22.4833 54.2499 21.3401 51.7425 21.7628 49.1137C21.8158 48.7902 22.0058 48.6362 22.3327 48.6482C22.8907 48.6704 23.0019 49.1017 22.9865 49.6049C22.8941 52.5812 24.4276 54.4364 27.1539 55.2802C32.1652 56.8325 30.7566 62.9459 25.7694 62.6943C24.5902 62.6344 23.529 62.4547 22.5894 62.1535C22.5004 62.1244 22.4046 62.1723 22.3755 62.263C22.3704 62.2767 22.3687 62.2921 22.3669 62.3075C22.3156 63.2676 22.3396 64.0327 22.4405 64.6026C23.2158 69.0302 28.4957 69.3485 31.0219 66.3808C31.6996 65.585 32.3295 64.2124 32.8977 63.3772C33.6747 62.2356 34.628 61.2601 35.7558 60.454C35.814 60.4112 35.8397 60.3376 35.8209 60.2691C35.1055 57.6951 35.1756 53.6782 37.1524 51.5919C38.6465 50.0157 40.4881 49.7144 42.6771 50.69C42.7626 50.7294 42.8653 50.69 42.903 50.6044C42.9081 50.5924 42.9115 50.5805 42.9149 50.5668C43.211 49.0607 43.478 47.6093 43.7142 46.2128C43.8237 45.5641 43.834 44.9805 43.7467 44.4636C43.3788 42.3055 41.0426 41.5199 39.3243 42.7573C38.1485 43.6028 37.2277 44.7477 36.1991 45.7575C34.7153 47.2123 32.4749 47.5426 30.8559 46.2282C28.3246 44.1727 29.6287 40.9654 32.2507 39.8563C33.0226 39.5294 33.6644 39.1991 34.1761 38.8654C35.8294 37.7889 35.0096 35.6923 33.1869 35.6838C30.6231 35.6701 27.6451 35.2011 25.6359 37.0358C23.4246 39.0588 22.3139 39.8974 19.0946 39.0417C19.0501 39.0297 19.0022 39.0365 18.9611 39.0605C17.3112 40.0617 16.2689 41.7201 16.3579 43.6764C16.4127 44.8881 16.8491 45.9903 17.6672 46.9829C17.7271 47.0565 17.8349 47.0668 17.9085 47.0069C17.9085 47.0069 17.912 47.0035 17.9137 47.0018C19.6799 45.4221 21.7628 44.6296 24.1606 44.6211ZM40.536 54.8215C41.3712 54.9379 42.126 55.2425 42.7986 55.7337C43.0193 55.8963 43.0912 55.845 43.0108 55.5831C42.6873 54.5237 42.5555 53.4369 42.6154 52.3193C42.6189 52.2577 42.5881 52.1995 42.535 52.1653C40.6147 50.9484 38.5627 51.3318 37.5187 53.3376C35.6942 56.841 36.882 61.3046 39.2096 64.1935C40.1064 65.306 41.5817 66.2593 42.8568 65.1451C43.1631 64.8764 43.7228 64.7258 43.9093 65.1417C44.0651 65.4874 44 65.7852 43.7142 66.0334C42.1242 67.4128 40.4453 67.0124 38.9614 65.6894C38.3624 65.1554 37.8404 64.5427 37.3954 63.8495C37.3458 63.7708 37.2414 63.7469 37.161 63.7965C37.1575 63.7982 37.1541 63.7999 37.1524 63.8033C36.6937 64.1336 36.3086 64.4982 35.9972 64.897C35.2047 65.9085 34.5116 67.3016 33.8647 68.1334C31.8211 70.7639 28.631 72.0373 25.1823 71.4417C25.119 71.4297 25.054 71.4554 25.0163 71.5084L17.2753 82.0785C17.2188 82.1555 17.2359 82.2616 17.3129 82.3181C17.3215 82.3249 17.3318 82.3301 17.342 82.3352C20.943 85.9623 25.1823 88.3031 37.0805 96.2256C37.1456 96.2923 37.2534 96.2957 37.3201 96.2307C37.327 96.2239 37.3338 96.217 37.339 96.2085C40.3049 92.2584 43.3462 88.2261 46.8958 84.7005C48.0408 83.5623 49.3621 83.0061 50.8596 83.0352C51.9806 83.0558 53.5535 83.6685 54.5068 83.932C55.751 84.276 57.0894 84.4831 58.5185 84.5516C60.9796 84.6697 62.2016 83.956 62.4207 81.4213C62.5199 80.2678 62.6705 79.2323 63.3757 78.291C63.9405 77.5379 65.3952 76.9697 64.9947 75.8128C64.4607 74.269 64.5634 72.7013 65.3028 71.1096C65.3268 71.06 65.373 71.0241 65.426 71.0138C66.7695 70.7519 69.5421 69.648 68.7069 67.7278C68.6059 67.4967 68.2072 66.8703 67.5089 65.8486C65.8333 63.396 64.0688 59.5794 65.7923 56.5176C67.5773 53.3479 67.4747 49.1325 66.7558 45.4854C66.7421 45.4152 66.684 45.3604 66.6121 45.3485C64.9314 45.0969 63.3226 44.6074 61.7857 43.8783C61.7275 43.8492 61.6591 43.8578 61.6077 43.8971C59.72 45.3502 57.4676 45.8807 55.2171 46.4952C51.5134 47.5066 49.0318 49.6802 49.6873 53.8836C50.0741 56.3635 51.2053 58.1229 52.2134 60.2144C53.3533 62.5796 53.2026 65.3813 50.8237 66.8053C49.4904 67.6028 48.0254 67.5515 46.735 66.7248C45.8981 66.1891 45.3401 65.5884 45.0629 64.9226C44.3132 63.1153 43.49 61.3405 42.5949 59.5999C42.3399 59.1053 42.1585 58.3557 42.0507 57.3494C41.9634 56.5432 41.1521 56.1017 40.4093 56.0794C39.8137 56.064 39.4441 55.9853 39.3944 55.3401C39.391 55.3007 39.4013 55.2613 39.4235 55.2288C39.6631 54.8882 40.0345 54.7513 40.536 54.8215Z" fill="white"/>
<path d="M58.4644 32.5296C57.749 31.7782 56.8402 32.6905 57.5693 33.5085C58.9607 35.066 61.2438 37.6383 60.4788 39.9334C59.7104 42.2371 55.8955 42.8874 53.7356 43.4865C46.2992 45.5471 44.4611 52.8636 47.9628 59.2081C48.4813 60.146 50.186 62.8672 49.3679 63.7812C48.6457 64.5856 47.8122 63.1753 47.6136 62.6088C46.9376 60.68 46.0117 59.4015 45.1662 57.7722C43.9802 55.4839 43.6516 53.1135 44.1821 50.6627C44.6254 48.6192 45.3733 46.0143 45.0618 44.2104C44.5107 41.0048 40.944 39.8564 38.4452 41.7989C37.533 42.5092 36.6978 43.2982 35.9379 44.1693C34.7467 45.5385 32.6399 46.6373 31.2587 44.7752C30.7402 44.0786 30.658 43.3204 31.0756 42.5606C32.1419 40.6266 35.0531 40.8457 36.1176 38.6515C36.8724 37.0975 36.0115 35.1601 34.3873 34.5628C34.0279 34.431 33.47 34.3643 32.7118 34.3591C31.5583 34.3506 30.4047 34.3574 29.2529 34.3763C27.0382 34.4139 25.8796 35.0386 24.3324 36.43C22.8349 37.7787 21.6111 38.6396 19.5454 37.7359C19.4889 37.7119 19.4495 37.6572 19.4444 37.5956C19.2134 35.1036 20.0879 33.2142 22.0698 31.9289C23.9405 30.7154 26.6686 30.9122 28.1079 32.8496C28.4998 33.3785 29.424 32.9951 29.2734 32.266C29.1108 31.4839 27.3069 30.2875 26.6241 29.9247C26.5556 29.8888 26.5214 29.8118 26.5368 29.7364C27.372 25.8959 31.4367 23.7155 35.0069 25.5622C35.5443 25.8411 35.967 26.3956 36.3778 26.8526C36.4137 26.8937 36.4685 26.9142 36.5233 26.9074C37.8154 26.7687 37.1445 25.8206 36.9169 25.1719C36.9032 25.136 36.9032 25.0949 36.9169 25.059C38.1817 21.2886 43.7371 20.183 46.2753 23.2893C46.2992 23.3184 46.3129 23.3561 46.3129 23.3937L46.3506 25.4851C46.3506 25.5365 46.3762 25.5844 46.4156 25.6152C46.9119 26.0088 47.309 25.9404 47.6068 25.4098C47.7043 25.2404 47.7369 24.9152 47.7043 24.436C47.6992 24.347 47.7608 24.2683 47.8481 24.2546C50.2835 23.8781 52.4023 24.5027 54.2011 26.1304C55.3375 27.1572 55.6815 28.4083 55.2314 29.8836C55.2194 29.923 55.2212 29.9641 55.2383 30.0017C55.5361 30.688 56.4021 30.5648 56.5903 29.8665C56.7495 29.2795 56.8197 28.6753 56.8026 28.0575C56.8026 28.0027 56.8265 27.9514 56.8693 27.9171C58.9008 26.3477 60.6346 27.6245 61.9729 29.2367C63.3678 30.9139 64.6651 33.0002 66.3167 33.9621C68.2301 35.078 70.5183 36.4369 70.5303 38.9801C70.5372 40.5256 69.6489 41.8126 68.059 42.0146C66.1181 42.2628 63.7084 41.2564 62.0037 40.3168C61.9421 40.2826 61.9079 40.2141 61.9182 40.1439C62.3375 37.077 60.3316 34.4926 58.4661 32.5296H58.4644ZM39.8829 33.9604C41.3308 34.366 42.445 33.5 43.0885 32.2421C43.6961 31.0577 44.0794 30.3748 44.9489 29.6868C46.2787 28.636 48.3461 28.677 49.3645 30.1198C50.7508 32.0829 49.1933 33.4435 47.8447 34.7203C46.4532 36.0381 45.8645 38.0611 46.8298 39.7743C47.4904 40.9466 48.7056 41.6432 50.0593 41.6603C52.4451 41.6911 53.7424 39.7486 55.7637 38.9014C56.6913 38.5112 57.4307 38.5745 58.3155 38.4958C58.36 38.4924 58.4028 38.4718 58.4319 38.4376C58.7622 38.0491 58.7434 37.6914 58.3737 37.3662C58.348 37.344 58.3172 37.3303 58.283 37.3251C55.726 36.988 54.1823 38.2784 52.2055 39.5655C51.6099 39.954 51.1376 40.1919 50.7884 40.2757C48.9811 40.7156 47.2782 39.2523 47.7369 37.3594C48.1527 35.6462 49.9686 34.9256 50.7405 33.4384C51.3104 32.3413 51.3549 31.2425 50.874 30.1421C49.1882 26.2758 44.1599 27.2326 42.5254 30.5614C41.9983 31.6328 41.6166 32.6391 40.5949 32.7332C39.3694 32.8445 38.4298 31.157 38.2878 30.1575C38.2159 29.6509 38.2056 28.9766 37.7042 28.7523C37.3533 28.5966 37.0744 28.7712 36.8707 29.2778C36.8621 29.3 36.857 29.324 36.8587 29.3479C36.9426 31.3315 37.913 33.4093 39.8829 33.9604Z" fill="#61C6FF"/>
<path d="M26.1839 44.6576C25.4976 44.6439 24.8387 44.6182 24.1575 44.6199C21.7597 44.6285 19.6769 45.4209 17.9106 47.0006C17.8405 47.0639 17.7326 47.0571 17.6693 46.9869C17.6693 46.9852 17.6659 46.9835 17.6642 46.9818C16.8461 45.9891 16.4097 44.8869 16.3549 43.6752C16.2659 41.719 17.3082 40.0605 18.9581 39.0593C18.9991 39.0354 19.047 39.0285 19.0915 39.0405C22.3108 39.8962 23.4216 39.0576 25.6328 37.0346C27.6421 35.1999 30.6201 35.6689 33.1839 35.6826C35.0066 35.6911 35.8264 37.7877 34.1731 38.8642C33.6614 39.198 33.0196 39.5283 32.2477 39.8552C29.6257 40.9642 28.3215 44.1715 30.8528 46.227C32.4719 47.5414 34.7122 47.2111 36.1961 45.7563C37.2247 44.7466 38.1454 43.6016 39.3212 42.7561C41.0395 41.5187 43.3757 42.3043 43.7437 44.4625C43.831 44.9793 43.8207 45.5629 43.7112 46.2116C43.475 47.6082 43.208 49.0595 42.9119 50.5656C42.8931 50.658 42.8041 50.7196 42.7117 50.7008C42.6997 50.6991 42.686 50.694 42.674 50.6888C40.485 49.7133 38.6435 50.0145 37.1493 51.5908C35.1726 53.6771 35.1024 57.6939 35.8178 60.268C35.8366 60.3364 35.811 60.41 35.7528 60.4528C34.6249 61.2589 33.6716 62.2345 32.8946 63.376C32.3264 64.2112 31.6966 65.5838 31.0188 66.3797C28.4927 69.3474 23.2128 69.029 22.4375 64.6014C22.3365 64.0315 22.3125 63.2665 22.3639 62.3063C22.369 62.2122 22.4495 62.1386 22.5419 62.1437C22.5573 62.1437 22.571 62.1472 22.5864 62.1523C23.526 62.4535 24.5871 62.6332 25.7663 62.6931C30.7536 62.9447 32.1621 56.8313 27.1509 55.279C24.4245 54.4352 22.891 52.58 22.9834 49.6037C22.9988 49.1006 22.8876 48.6693 22.3297 48.647C22.0028 48.635 21.8128 48.7891 21.7597 49.1125C21.337 51.7414 22.4803 54.2487 24.6949 55.6812C25.3864 56.1296 26.3311 56.4394 27.1937 56.7577C30.1819 57.8582 29.1037 61.3787 26.2062 61.3856C23.6321 61.3907 21.4277 60.5059 19.5947 58.7293C17.1747 56.3863 16.1718 52.6348 17.7634 49.5301C19.4338 46.2732 22.85 45.77 26.1497 45.8796C26.1908 45.8796 26.2301 45.8676 26.2609 45.8419C26.7145 45.4842 26.7264 45.106 26.2969 44.7038C26.2661 44.6747 26.2267 44.6593 26.1839 44.6576Z" fill="#61C6FF"/>
<path d="M39.8816 33.9591C37.9117 33.408 36.9413 31.3303 36.8574 29.3467C36.8574 29.3227 36.8608 29.2988 36.8694 29.2765C37.0731 28.7699 37.352 28.5954 37.7029 28.7511C38.2044 28.9753 38.2146 29.6496 38.2865 30.1562C38.4286 31.1557 39.3682 32.8433 40.5936 32.732C41.6153 32.6379 41.997 31.6315 42.5241 30.5601C44.1586 27.2313 49.1869 26.2746 50.8727 30.1408C51.3536 31.2413 51.3091 32.3401 50.7392 33.4371C49.9673 34.9244 48.1515 35.6449 47.7356 37.3581C47.2769 39.251 48.9798 40.7143 50.7871 40.2745C51.1363 40.1906 51.6086 39.9527 52.2042 39.5642C54.181 38.2772 55.7248 36.9867 58.2817 37.3239C58.3159 37.329 58.3467 37.3427 58.3724 37.365C58.7421 37.6902 58.7609 38.0479 58.4306 38.4364C58.4015 38.4706 58.3587 38.4911 58.3142 38.4946C57.4294 38.5733 56.69 38.51 55.7624 38.9002C53.7412 39.7474 52.4438 41.6899 50.058 41.6591C48.7043 41.642 47.4891 40.9454 46.8285 39.773C45.8632 38.0598 46.452 36.0369 47.8434 34.719C49.192 33.4423 50.7495 32.0816 49.3632 30.1186C48.3449 28.6758 46.2774 28.6347 44.9476 29.6856C44.0781 30.3736 43.6948 31.0565 43.0872 32.2408C42.4437 33.4987 41.3295 34.3648 39.8816 33.9591Z" fill="white"/>
</g>
<defs>
<clipPath id="clip0_2379_709">
<rect width="62" height="83.5184" fill="white" transform="translate(12 18)"/>
</clipPath>
</defs>
</svg>
